<svg xmlns="http://www.w3.org/2000/svg" viewBox="0 0 24 24" width="24" height="24">
  <path fill="#000000" d="M17.05 20.28c-.98 1.15-2.01 1.15-3.04.52-1.03-.62-1.97-.62-3.04 0-1.07.62-1.97.67-3.04-.52C4.3 16.32 3.74 12.04 6.27 9.14 7.3 7.99 8.6 7.37 9.97 7.37c1.31 0 2.13.41 2.86.77.55.27.99.49 1.31.49.29 0 .71-.2 1.21-.45.77-.38 1.73-.86 2.87-.86 1.07 0 2.06.31 2.86.93.28.21.53.45.75.72-1.9 1.21-3.19 3.48-3.19 5.88 0 2.37 1.23 4.43 3.07 5.67-.15.21-.31.41-.48.59l-.18.21zM15.28 3.03c.84-1.01 1.46-2.43 1.3-3.87-1.26.07-2.78.86-3.66 1.92-.8.93-1.5 2.32-1.3 3.68 1.38.1 2.8-.74 3.66-1.73z"/>
</svg> 