<?xml version="1.0" encoding="UTF-8"?>
<svg width="18" height="18" viewBox="0 0 18 18" xmlns="http://www.w3.org/2000/svg">
  <path d="M14.537 9.544c-.02-2.006 1.64-2.974 1.715-3.025-.935-1.363-2.39-1.55-2.91-1.57-1.237-.127-2.417.73-3.043.73-.627 0-1.594-.713-2.62-.693-1.347.02-2.59.785-3.283 1.994-1.4 2.427-.357 6.022 1.005 7.99.667.962 1.46 2.045 2.504 2.006 1.005-.04 1.384-.648 2.598-.648 1.214 0 1.556.648 2.62.627 1.082-.02 1.767-.982 2.427-1.95.764-1.115 1.078-2.195 1.097-2.251-.024-.01-2.11-.807-2.11-3.21zm-1.975-5.902c.553-.673.927-1.61.825-2.545-.797.033-1.76.533-2.333 1.206-.512.593-.96 1.54-.84 2.447.89.068 1.797-.45 2.348-1.108z" fill="#000000"/>
</svg> 